<?xml version="1.0" encoding="utf-8"?>
<!-- Generator: Adobe Illustrator 21.1.0, SVG Export Plug-In . SVG Version: 6.00 Build 0)  -->
<svg version="1.1" id="Calque_1" xmlns="http://www.w3.org/2000/svg" xmlns:xlink="http://www.w3.org/1999/xlink" x="0px" y="0px"
	 viewBox="0 0 432 432" style="enable-background:new 0 0 432 432;" xml:space="preserve">
<style type="text/css">
	.st0{fill:#486C59;}
	.st1{fill:#DE8C3D;}
	.st2{fill:#F9B03D;}
	.st3{fill:#CF9152;}
	.st4{fill:#1B1B1B;}
	.st5{fill:#746458;}
	.st6{fill:#EAB35C;}
	.st7{fill:#020203;}
	.st8{fill:#BF9367;}
	.st9{fill:#849BB3;}
	.st10{fill:#566344;}
	.st11{fill:#9FAF88;}
	.st12{fill:#C9A18B;}
	.st13{fill:#9AB773;}
	.st14{fill:#C69C6C;}
	.st15{fill:#81727F;}
	.st16{fill:#6A7089;}
	.st17{fill:#A16D82;}
	.st18{fill:#89BBBF;}
	.st19{fill:#8E767F;}
	.st20{fill:#D9AB95;}
	.st21{fill:#7D929A;}
	.st22{fill:#AE9683;}
	.st23{fill:#9C7380;}
	.st24{fill:#A8667C;}
	.st25{fill:#738799;}
	.st26{fill:#CC7766;}
	.st27{fill:#1F364C;}
	.st28{fill:#B05869;}
	.st29{fill:#343434;}
	.st30{fill:#7C858E;}
	.st31{fill:#D3B78B;}
	.st32{fill:#C7884E;}
	.st33{fill:#A16472;}
	.st34{fill:#729077;}
	.st35{fill:#778694;}
	.st36{fill:#808181;}
	.st37{fill:#76847A;}
	.st38{fill:#9B6F70;}
	.st39{fill:#C1292E;}
	.st40{fill:#741613;}
	.st41{fill:#768775;}
	.st42{fill:#8F6977;}
	.st43{fill:#422B34;}
	.st44{fill:#A02B20;}
	.st45{fill:#B6759C;}
	.st46{fill:#C1944E;}
	.st47{fill:#603914;}
	.st48{fill:#A63842;}
	.st49{fill:#8C4044;}
	.st50{fill:#727D6E;}
	.st51{fill:#B34B59;}
	.st52{fill:#628A77;}
	.st53{fill:#CDA4B3;}
	.st54{fill:#80556D;}
	.st55{fill:#97353D;}
	.st56{fill:#B58588;}
	.st57{fill:#CFAD9C;}
	.st58{fill:#9BB3B5;}
	.st59{fill:#B4B4B4;}
	.st60{fill:#BD5159;}
	.st61{fill:#988993;}
	.st62{fill:#B5799F;}
	.st63{fill:#B280AE;}
	.st64{fill:#A67F84;}
	.st65{fill:#B47881;}
	.st66{fill:#C14557;}
	.st67{fill:#C25C6A;}
</style>
<g>
	<g>
		<path class="st52" d="M93.9,217.6c1.1-2.3,2-4.6,3.1-6.8c2.8-5.4,6.5-10.1,11.2-13.9c2.1-1.7,4.4-3.1,7.1-3.8
			c1.3-0.3,2.7-0.4,4.1-0.1c3.9,0.8,6,4.3,4.8,8.1c-0.4,1.2-0.9,2.3-1.7,3.2c-1.1,1.2-2.1,2.5-3.4,3.5c-2.7,2.2-5.5,4.3-8.3,6.2
			c-3.7,2.5-6.6,5.8-8.8,9.8c-2.2,3.9-3.5,8-4,12.4c-0.4,3.3-0.4,6.7,0.1,10c0.5,3.2,1.4,6.3,2.4,9.4c0.5,1.6,1,3.3,1.5,4.9
			c0.1,0,0.1,0,0.2,0c0.1-0.4,0.1-0.8,0.2-1.2c0.7-4.9,1.9-9.7,4-14.2c1.8-3.8,4.1-7.1,7.4-9.9c1.5-1.2,3.1-2.3,4.9-2.9
			c1.4-0.5,2.9-0.7,4.4-0.3c2.9,0.7,4.4,3.2,3.8,6.1c-0.4,1.7-1.2,3.3-2.2,4.7c-1.5,2.1-3.3,3.9-5.1,5.8c-2.7,2.7-5.3,5.5-7.9,8.4
			c-3.1,3.6-3.9,8-3.8,12.6c0.1,3.3,1.1,6.3,2.4,9.3c0.5,1.1,1,2.2,1.6,3.2c2.5,4.3,5.3,8.3,8.2,12.3c0.6,0.9,1.3,1.7,2.1,2.5
			c-0.2-0.7-0.4-1.5-0.6-2.2c-1.3-4.9-1.6-9.8-0.8-14.8c0.3-2.2,1.1-4.3,2.6-6.1c0.9-1.1,2.1-1.9,3.6-2.2c1.6-0.3,3,0.1,4,1.3
			c1,1.2,1.5,2.6,1.6,4.1c0.2,2,0,4.1-0.3,6.1c-0.4,3.2-0.8,6.5-1.1,9.8c-0.2,2.4,0,4.8,0.5,7.2c0.7,3,2,5.7,3.9,8.1
			c1.6,2.1,3.4,4.1,5.4,5.9c3.3,2.9,6.6,5.7,10,8.5c2.2,1.8,4.6,3.2,7.1,4.6c0-0.4-0.2-0.7-0.4-0.9c-1.8-2.8-3.3-5.7-4.4-8.9
			c-0.9-2.5-1.4-5.2-1.2-7.9c0.1-0.8,0.2-1.7,0.6-2.5c1.1-2.2,3.7-2.6,5.4-0.7c0.6,0.7,1.1,1.5,1.5,2.3c0.4,0.9,0.7,1.9,0.9,2.9
			c0.4,2.1,0.7,4.3,1.2,6.4c0.3,1.6,0.7,3.3,1.2,4.9c1.3,4.4,4.2,7.7,8,10c3.4,2.1,7,3.9,10.9,5.2c6,1.9,12,3.7,18.1,4.8
			c1.9,0.3,3.9,0.4,5.8,0.7c3.1,0.5,6.1,0.5,9.2,0.7c0.5,0,1,0.1,1.5,0.3c1.5,0.4,1.9,1.6,0.9,2.8c-0.4,0.5-1,0.9-1.6,0.9
			c-0.8,0.1-1.5,0.2-2.3,0.1c-3.4-0.3-6.7-0.6-10.1-0.9c-5.5-0.5-10.9-1.6-16.2-3.2c-3.7-1.1-7.4-2.4-11.1-3.6
			c-2.6-0.8-5.1-1.7-7.7-2.4c-1.2-0.3-2.6-0.4-3.9-0.5c-3.5-0.2-7.1,0.1-10.6,0.4c-3,0.3-5.9,0.7-8.9,0.5c-1.4-0.1-2.8-0.3-4.2-1
			c-0.6-0.3-1.3-0.6-1.8-1.1c-1.9-1.5-2.1-3.7-0.5-5.5c1.1-1.3,2.6-1.8,4.2-2c2.4-0.4,4.8-0.1,7.2,0.3c1.2,0.2,2.4,0.4,3.6,0.5
			c-0.2-0.2-0.4-0.3-0.7-0.5c-6.5-3.9-12.7-8.2-18.5-13.1c-1.9-1.6-3.8-3.2-5.8-4.7c-1-0.7-2-1.4-3.1-1.9c-4.4-2.2-9.1-3.4-13.9-4.2
			c-3-0.5-6-1.2-8.9-1.9c-1.3-0.3-2.5-1-3.7-1.6c-1-0.5-1.7-1.3-2.4-2.2c-0.9-1.2-1-2.4-0.5-3.8c0.7-2.1,2.3-3.2,4.4-3.6
			c1.6-0.4,3.2-0.2,4.8,0c2.4,0.4,4.8,1.1,6.9,2.3c1.1,0.6,2.1,1.2,3.1,1.8c0.1,0.1,0.3,0.2,0.6,0.1c-0.5-0.7-1-1.5-1.5-2.2
			c-4-5.5-7.6-11.4-10.7-17.5c-1-1.9-2.4-3.7-3.8-5.4c-2.5-3.2-5.5-5.8-9.1-7.7c-2.2-1.2-4.5-2-6.9-2.8c-2.3-0.7-4.6-1.4-6.9-2.1
			c-1.6-0.5-3.2-1.3-4.6-2.3c-0.8-0.6-1.6-1.2-2.3-2c-2.5-2.9-1.7-7,1.8-8.7c1.5-0.7,3.1-0.9,4.8-0.7c2.2,0.2,4.3,1,6.3,1.9
			c3.5,1.7,6.6,4.1,9.4,6.8c1,1,1.9,2,2.9,3c0.2,0.2,0.4,0.3,0.7,0.7c-0.1-0.5-0.2-0.8-0.3-1.1c-1.7-5.8-3.3-11.6-4.5-17.5
			c-0.3-1.3-0.5-2.6-0.7-3.9c-0.2-1.5-0.6-2.9-1.2-4.3c-0.8-2-1.7-4-2.6-5.9c-1.6-3.4-3.8-6.3-6.2-9.1c-1.9-2.1-3.8-4.2-5.6-6.4
			c-1.6-1.8-3-3.6-4.1-5.7c-1.2-2.3-2-4.8-1.8-7.4c0-0.7,0.2-1.4,0.4-2.1c1-3.1,3.9-4.7,7.1-3.9c1.3,0.3,2.4,0.9,3.5,1.7
			c2,1.5,3.5,3.3,4.9,5.3c1.5,2.1,2.8,4.4,3.8,6.8c0.1,0.3,0.3,0.6,0.5,0.8c0.1-1.1,0.2-2.1,0.4-3.2c0.5-4.2,1.1-8.4,2-12.6
			c0.2-0.8,0.2-1.6,0.3-2.4c0.3-4.6,0.5-9.2,0.2-13.8c-0.2-3.5-0.9-6.9-1.6-10.4c-1-4.4-1.7-8.8-1.6-13.3c0-2.6,0.3-5.1,1.2-7.5
			c0.7-1.9,1.7-3.6,3.4-4.9c2.7-2,6-1.4,7.8,1.4c0.3,0.5,0.7,1.1,0.9,1.7c0.4,1.1,0.7,2.3,0.9,3.5c0.6,3.5,0.4,7-0.1,10.4
			c-0.2,1.1-0.3,2.2-0.4,3.3c0.1-0.2,0.2-0.4,0.3-0.5c1.6-2.8,3.2-5.7,4.7-8.5c1.3-2.4,2.6-4.8,3.8-7.1c0.6-1.1,1.2-2.2,1.8-3.2
			c2.5-4.2,4.3-8.8,6.3-13.3c2.3-5.2,4.8-10.4,8-15.2c2.9-4.4,6.3-8.3,10.6-11.4c2.3-1.7,4.8-3,7.6-3.7c1.9-0.5,3.8-0.6,5.7,0.1
			c2.1,0.7,3.6,2.1,4.1,4.3c0.3,1.4,0.1,2.7-0.2,4.1c-0.5,1.9-1.3,3.7-2.3,5.4c-1.9,3.2-4.1,6.1-6.6,8.9
			c-5.4,6.2-11.4,11.7-17.8,16.8c-1.4,1.1-2.6,2.3-3.9,3.5c-1.4,1.4-2.8,3-4.2,4.4c-6.7,7-11.9,14.9-16.2,23.6
			c-0.2,0.3-0.3,0.7-0.3,1.1c0.2-0.2,0.4-0.5,0.7-0.7c2.1-2.4,4.2-4.6,6.7-6.5c2.3-1.8,4.9-3.2,7.5-4.5c1.6-0.8,3.2-1.2,5-0.9
			c0.9,0.1,1.7,0.5,2.4,1.1c0.9,0.8,1.2,1.8,0.9,3c-0.3,1-0.8,1.8-1.6,2.5c-1.3,1.1-2.5,2.2-3.9,3.1c-2.9,2-5.9,4-8.9,6
			c-1.3,0.9-2.7,1.8-4,2.8c-5.6,3.9-9.3,9.2-11,15.8c-1,3.9-1.8,7.9-2.4,11.9c-1,5.7-1.3,11.4-1.5,17.2
			C93.9,217.3,93.9,217.4,93.9,217.6z"/>
		<path class="st52" d="M234,87.5c0.6,0.1,1.2,0.1,1.9,0.2c2.7,0.3,5.4,0.8,8.1,1c2.8,0.2,5.6,0.3,8.4,0.4c2.5,0.1,5.1,0,7.6-0.3
			c5.2-0.7,10.1-2.3,14.6-5c1.7-1,3.4-2,5.1-2.9c1.9-1,3.9-1.9,6-2.3c0.9-0.1,1.8-0.2,2.7-0.2c3.4,0.3,5.4,3.5,4.1,6.7
			c-0.5,1.2-1.3,2.2-2.3,3.1c-1.3,1.1-2.8,2-4.4,2.6c-2.9,1.2-5.8,2-8.9,2.3c-3.3,0.3-6.6,0.6-9.9,0.8c-0.3,0-0.7,0.1-1,0.3
			c0.2,0.1,0.5,0.2,0.7,0.3c5.1,1.8,10.1,3.9,15.1,6.1c4.5,2,9.2,3.6,14.1,4.3c4.2,0.6,8.4,0.4,12.5-0.5c2.7-0.6,5.5-1.2,8.2-1.7
			c2.2-0.4,4.4-0.5,6.6-0.1c0.3,0.1,0.6,0.1,0.8,0.2c4.8,1.3,6.3,6.5,2.8,10.2c-1.3,1.3-2.9,2.1-4.6,2.6c-2.4,0.7-4.9,0.9-7.4,0.8
			c-2.7-0.1-5.4-0.6-8.1-1.1c-0.1,0-0.2,0-0.6-0.1c0.3,0.3,0.4,0.4,0.6,0.6c5.1,3.9,9.9,8.1,14.5,12.5c0.3,0.3,0.6,0.6,1,0.8
			c2.5,1.7,5,3.4,7.5,5c4,2.5,8.4,3.9,13,5c3.2,0.7,6.3,1.5,9.4,2.3c2.2,0.6,4.3,1.5,6.2,2.6c1.6,1,3,2.2,3.9,3.9
			c0.8,1.4,1.1,2.8,0.8,4.4c-0.4,2.2-2,3.6-4.2,3.8c-2,0.1-3.9-0.3-5.8-0.9c-2.8-0.9-5.5-2.2-8.1-3.7c-1.9-1.1-3.8-2.3-5.7-3.4
			c-0.2-0.1-0.5-0.3-0.8-0.3c0.1,0.2,0.2,0.4,0.4,0.6c2.6,3.6,4.8,7.4,7,11.3c1.7,3,3.4,6,5.2,9c2.8,4.8,5.4,9.8,7.7,14.9
			c1.9,4.3,2.9,8.9,2.7,13.6c-0.1,1.6-0.4,3.2-1,4.6c-0.4,1.1-1,2-1.9,2.8c-2,1.8-5.6,2.2-7.6-1.2c-0.8-1.5-1.2-3.1-1.4-4.7
			c-0.3-2.5-0.5-5.1-0.7-7.6c-0.8-9.3-3.2-18.2-7.2-26.6c-2.3-4.9-5.3-9.4-8.4-13.8c-0.1-0.1-0.1-0.1-0.3-0.2
			c0.1,0.3,0.2,0.6,0.3,0.9c1.4,4,2.3,8.1,2.5,12.4c0.2,3.8-0.1,7.6-1.2,11.3c-0.5,1.8-1.3,3.4-2.6,4.8c-1,1.1-2.1,1.9-3.6,2.3
			c-1.5,0.3-2.7-0.1-3.6-1.4c-0.8-1.1-1.1-2.3-1.3-3.6c-0.3-2-0.2-4.1,0.1-6.1c0.5-3.4,1.1-6.8,1.7-10.3c0.6-3.6,0.9-7.3,0.5-10.9
			c-0.3-3.2-1.2-6.2-2.8-9c-2.3-4.2-5-8-8.6-11.2c-3.5-3.1-6.9-6.2-10.6-9c-0.3-0.3-0.7-0.5-1.2-0.7c0.2,0.3,0.3,0.6,0.5,0.9
			c2,3.4,3.6,7,4.4,10.9c0.5,2.5,0.8,5,0.3,7.6c-0.2,1.2-0.6,2.3-1.3,3.3c-0.4,0.6-0.9,1.2-1.5,1.6c-1.2,0.9-2.5,0.9-3.7,0.1
			c-1-0.6-1.6-1.5-2.1-2.5c-1-2-1.4-4.1-1.7-6.2c-0.4-2.9-0.8-5.9-1.4-8.8c-1.3-6.5-4.7-11.8-9.8-15.9c-2-1.6-4.2-3-6.5-4.1
			c-4.6-2.3-9.1-4.5-13.7-6.7c-0.2-0.1-0.5-0.2-0.8-0.2c0.2,0.2,0.4,0.4,0.7,0.7c3.5,3.1,6.4,6.6,8.7,10.6c1.4,2.5,2.3,5,2.1,7.9
			c-0.1,1.1-0.3,2.2-0.9,3.2c-1.3,2.3-3.7,3-6.1,2c-1.2-0.5-2.1-1.3-2.9-2.3c-1.3-1.6-2.2-3.3-3.1-5.2c-0.9-2.1-1.8-4.2-2.7-6.2
			c-0.8-1.7-1.7-3.4-2.5-5c-1.6-3-4-5.1-7-6.7c-2.9-1.5-5.9-2.8-9.1-3.7c-4.6-1.3-9.2-2.2-13.9-2.6c-0.3,0-0.6,0-1.2,0
			c0.4,0.3,0.7,0.4,0.9,0.6c3.2,1.8,6.3,3.8,9,6.3c1.7,1.6,3.2,3.3,4.3,5.3c1.1,1.9,1.7,4,1.5,6.2c0,0.2,0,0.3,0,0.5
			c-0.5,3.9-3.8,5.7-7.3,3.9c-1.4-0.7-2.7-1.7-3.7-3c-1.3-1.7-2.5-3.5-3.7-5.3c-0.9-1.3-1.7-2.7-2.5-4.1c-2.6-4.5-6.7-7.2-11.6-8.7
			c-2.9-0.9-5.9-1-8.9-1c-5.5,0-10.8,0.9-16.1,2.5c-4.7,1.4-9.5,2.9-14.2,4.4c-1.2,0.4-2.7-0.2-3.2-1.1c-0.6-1-0.3-1.8,0.6-2.3
			c0.6-0.3,1.2-0.6,1.8-0.8c3.3-1.2,6.6-2.4,9.9-3.5c5.4-1.8,10.9-2.9,16.5-3.8c2.3-0.4,4.5-0.9,6.7-1.3c2.9-0.5,5.9-0.9,8.8-1.5
			c5.8-1.2,11.2-3.3,16-6.8c1.6-1.2,3.2-2.3,4.8-3.4c1.7-1.2,3.5-2.3,5.5-3c0.7-0.3,1.5-0.5,2.3-0.6c3.7-0.5,5.6,3.1,4.6,5.7
			c-0.3,0.8-0.8,1.5-1.3,2.2c-1.1,1.4-2.4,2.4-3.9,3.4c-3,2.1-6.4,3.3-10,4.2c-0.3,0.1-0.6,0.1-0.8,0.2c-0.1,0-0.1,0.1-0.2,0.1
			C234,87.4,234,87.5,234,87.5z"/>
		<path class="st52" d="M289.4,334.9c-0.1,0.1-0.3,0.1-0.4,0.2c-4.8,3-9.8,5.6-14.8,8.2c-4.2,2.2-8.4,4.6-12.6,6.8
			c-6.4,3.3-13.1,5.6-20.2,7c-3.1,0.6-6.2,0.5-9.3-0.3c-1.7-0.4-3.3-1.2-4.5-2.5c-0.9-0.9-1.5-1.9-1.8-3.2c-0.4-1.9,0-3.5,1.4-4.9
			c1.3-1.4,3-2.2,4.8-2.8c3.6-1,7.2-1.4,10.9-1.7c4.1-0.4,8.2-0.9,12.3-1.3c6.6-0.6,12.9-2.3,19.1-4.7c3.4-1.3,6.7-3,9.9-4.7
			c0.2-0.1,0.3-0.2,0.4-0.4c-1.2,0.2-2.3,0.4-3.5,0.6c-4.6,0.7-9.2,1-13.9,0.3c-2.4-0.3-4.7-0.9-6.9-2.1c-1.6-0.9-3-2-4.1-3.5
			c-0.7-1-1.2-2-1.5-3.2c-0.5-2.6,0.7-4.9,3.2-5.8c1.8-0.6,3.6-0.6,5.4-0.3c2,0.4,3.9,1,5.7,1.8c3,1.2,6,2.4,8.9,3.6
			c3.6,1.4,7.4,2,11.3,1.7c0.9-0.1,1.8-0.3,2.7-0.5c2.2-0.6,4.3-1.3,6.4-2.3c2.2-1,4.2-2.3,6-3.9c4.2-3.7,8.3-7.5,12.1-11.5
			c0.2-0.2,0.4-0.5,0.5-0.8c-0.3,0.1-0.6,0.3-0.9,0.4c-4.9,2.4-10,4.1-15.4,4.8c-3.4,0.5-6.7,0.6-10.1-0.1c-1.7-0.4-3.3-1-4.7-2.2
			c-1-0.9-1.8-1.9-2.1-3.2c-0.4-1.9,0.6-3.9,2.3-4.8c1.5-0.7,3.1-1,4.8-1c2.6-0.1,5.1,0.3,7.7,0.6c3.1,0.4,6.3,0.8,9.4,0.9
			c5.5,0.3,10.5-1.1,14.9-4.5c1.7-1.3,3.3-2.8,4.6-4.5c5.2-6.4,9.1-13.6,12.4-21.2c0.1-0.2,0.1-0.4,0.1-0.7
			c-0.2,0.2-0.5,0.5-0.7,0.7c-4.1,3.9-8.5,7.2-13.6,9.7c-2.8,1.4-5.8,2.4-8.9,2.7c-1.5,0.2-3,0.2-4.5-0.3c-1.1-0.3-2-0.8-2.8-1.6
			c-1.9-1.8-2.1-4.2-0.4-6.2c0.7-0.9,1.7-1.5,2.7-2.1c1.8-1,3.7-1.7,5.7-2.1c2.5-0.6,5-1,7.6-1.5c3.5-0.7,6.9-1.6,10-3.3
			c2.3-1.2,4.3-2.7,6.1-4.5c1.1-1.1,2-2.3,2.6-3.7c1.5-3.8,2.9-7.7,3.4-12c-0.3,0.4-0.5,0.6-0.7,0.9c-1.5,2-3.2,4-5.2,5.5
			c-2,1.6-4.3,2.7-6.9,3c-1.4,0.1-2.7,0-3.9-0.9c-1.3-0.9-1.9-2.2-1.6-3.8c0.2-1.3,0.8-2.4,1.7-3.2c0.8-0.8,1.7-1.5,2.7-2.1
			c1.2-0.8,2.4-1.4,3.6-2.1c1.7-1,3.4-1.9,5.1-3c3.6-2.3,6.3-5.5,7.7-9.7c0.6-1.7,0.8-3.6,1-5.4c0.5-4,0.9-8.1,1.3-12.1
			c0-0.3,0.1-0.7,0.2-1c0.2-0.7,0.7-0.9,1.4-0.7c0.8,0.3,1.3,0.9,1.6,1.7c0.2,0.7,0.4,1.5,0.4,2.2c0.3,3.9,0.1,7.9-0.3,11.8
			c-0.5,4.8-1.1,9.7-1.8,14.5c-1.2,7.8-2.8,15.5-5.1,23.1c-0.4,1.5-0.6,3.1-0.8,4.6c-0.7,4.5,0.1,8.7,1.4,13
			c1.1,3.4,2.3,6.7,3.4,10.1c0.8,2.2,1.5,4.5,1.7,6.8c0.1,0.9,0,1.9-0.2,2.8c-0.7,3-3.6,4.5-6.7,3.6c-1.7-0.5-3-1.7-3.9-3.2
			c-1.2-1.9-1.9-3.9-2.4-6.1c-0.7-3-1-5.9-1-9c0-0.9,0.1-1.8,0.2-2.7c0-0.2,0-0.5-0.1-0.8c-0.2,0.3-0.3,0.5-0.5,0.8
			c-2.2,3.4-4.2,6.9-6.5,10.2c-2.7,3.7-4,7.9-4.5,12.4c-0.3,3,0,6,0.3,9c0.4,3.4,0.8,6.8,0.6,10.2c-0.1,1.8-0.3,3.5-0.9,5.2
			c-0.4,1.1-1,2.1-1.8,3c-1.8,1.8-4.3,2.2-6.5,1c-1.4-0.7-2.4-1.8-3.2-3.2c-0.9-1.7-1.2-3.5-1.5-5.3c-0.5-3.2,0.1-6.2,1-9.2
			c0.5-1.5,1.1-2.9,1.6-4.4c0.1-0.2,0.2-0.5,0.3-0.9c-0.3,0.2-0.5,0.4-0.6,0.5c-3.4,3.1-6.8,6.3-10.2,9.4c-0.6,0.6-1.1,1.2-1.7,1.8
			c-0.7,0.8-1.4,1.6-2.2,2.4c-3.9,4.2-6,9.3-6.7,15c-0.4,2.7-0.6,5.4-0.9,8.1c-0.3,2.4-0.9,4.6-1.9,6.8c-0.5,1-1.1,1.9-1.9,2.7
			c-1.8,1.7-3.9,2.3-6.2,1.5c-2.4-0.8-3.7-2.5-4.1-5c-0.5-2.8,0-5.5,0.9-8.2c1.2-3.9,3.2-7.3,5.6-10.6c0.3-0.5,0.7-1,1-1.4
			C289.4,335,289.4,334.9,289.4,334.9z"/>
	</g>
	<g>
		<path class="st4" d="M180.1,163.2c5.8-2.2,11.7-10.5,11.7-16.5c-0.4-0.2-0.8-0.3-1.2-0.5c-1.6-0.7-3.1-1.6-4.2-2.9
			c-1.8-2.1-2.5-4.5-1.8-7.2c0.5-1.9,1.7-3.2,3.7-3.7c1.9-0.5,3.6,0.2,4.9,1.6c1.2,1.3,1.8,2.9,2.1,4.5c0.3,1.5,0.4,3.1,0.3,4.7
			c0,0.4,0,0.8-0.1,1.2c1,0.1,2,0.2,2.9,0.4c1,0.2,2,0.3,2.9,0.6c2.8,0.8,4.1,2.7,4.1,5.6c0,1.8-0.4,3.5-0.8,5.3
			c-0.8,3.3-1.6,6.6-2.3,9.9c-0.5,2.5-0.8,5.1-0.7,7.7c0,1.5,0.3,2.7,0.9,3.8c0.3-0.3,0.5-0.6,0.7-0.9c0.9-1.5,1.7-3,2.6-4.5
			c1.1-2,2.1-4,3.2-6c0.3-0.5,0.3-0.9,0.2-1.4c-1.1-4.5-0.3-8.8,1.8-12.8c0.7-1.3,1.6-2.5,2.7-3.4c1.9-1.7,4.1-2.3,6.6-1.6
			c2.9,0.8,4.7,3.9,4,6.9c-0.6,2.7-2.1,4.9-4.4,6.5c-1.3,0.9-2.8,1.6-4.6,1.9c0.1,0.8,0.1,1.5,0.3,2.3c0.3,1.7,0.8,3.3,1.7,4.8
			c1.3,2.2,2.7,2.5,4.7,1c0.9-0.6,1.7-1.4,2.4-2.2c1.9-2.2,3.7-4.5,5.4-6.8c0.3-0.3,0.4-0.9,0.4-1.3c0.1-1.3,0.1-2.5,0.2-3.8
			c0.3-3.1,0.6-6.1,1.6-9.1c0.3-1,0.9-2,1.4-3c0.5-0.8,1.3-1.3,2.3-1.3c1.6-0.1,2.7,0.6,3.1,2.2c0.2,1.1,0.3,2.3,0.4,3.4
			c0,1.7-0.1,3.3-0.1,5c-0.2,4.4-0.5,8.8-0.6,13.2c-0.1,5.6,0.4,11.2,2,16.7c0.1,0.4,0.2,0.7,0.4,1.1c0.1,0.2,0.2,0.3,0.3,0.7
			c0.3-0.6,0.6-1.1,0.8-1.6c1-2.2,1.7-4.6,2.3-7c1.3-5.6,2.4-11.2,3.6-16.8c0.3-1.4,0.6-2.9,1-4.3c0.3-1.1,0.9-1.9,2.1-2.1
			c1.2-0.2,2,0.3,2.7,1.3c0.6,0.9,1.2,1.9,1.9,2.9c0.5,0.8,1.1,1.5,1.8,2.3c0.5-0.8,0.9-1.6,1.4-2.2c0.9-1.4,2.1-2.5,3.6-3.4
			c1.2-0.7,2.5-1.1,3.8-1c3.8,0.2,6.5,4.3,5.2,8c-1,2.8-3.1,4.4-6.1,4.9c-0.3,0.1-0.6,0.1-1,0.1c0,0.9-0.1,1.8,0,2.7
			c0.2,2.6,1,5.1,2.5,7.3c0.7,1,1.5,1.9,2.6,2.6c1.2,0.7,1.9,0.7,2.8-0.5c0.6-0.9,1.2-1.8,1.6-2.8c1.1-2.4,1.6-4.9,2.1-7.4
			c0.6-3.1,0.9-6.2,1.2-9.4c0.3-3.3,0.4-6.7,0.1-10c0-0.2,0-0.4-0.1-0.8c-0.3,0-0.6,0-0.9,0.1c-5.3,0.8-9.7-2.8-9.8-8.2
			c0-1.6,0.4-3,1.3-4.3c1.4-2,3.6-2.7,5.9-1.9c1.2,0.4,2.2,1.2,3,2.2c1.6,2,2.6,4.3,3.3,6.8c0.1,0.3,0.1,0.6,0.2,0.8
			c0,0.1,0.1,0.1,0.1,0.3c0.3-0.2,0.6-0.3,0.9-0.5c1.2-0.6,2.5-1.3,3.7-1.9c1.7-0.8,3.5-1,5.3-0.7c3.6,0.5,5.6,2.7,5.7,6.3
			c0.1,2.2,0,4.4,0,6.6c0,3.3-0.2,6.6-0.1,9.8c0.1,3,0.6,6,1.7,8.9c0.7,1.8,1.6,3.4,2.9,4.8c0.3,0.3,0.6,0.6,1,0.9
			c1.2,0.9,2.4,0.8,3.5-0.2c0.9-0.8,1.6-1.8,2.1-3c1.1-2.4,1.8-4.9,2.3-7.5c0.2-1.2,0.4-2.4,0.6-3.7c0.1-0.7,0.4-1.3,1-1.8
			c0.6-0.5,1.3-0.7,2-0.3c0.7,0.4,1,1,0.9,1.8c-0.2,2.8-0.8,5.5-1.7,8.2c-0.8,2.4-1.9,4.6-3.5,6.5c-1.8,2.2-4.1,3.4-6.9,3.4
			c-1.6,0-3-0.5-4.3-1.4c-1.3-0.9-2.3-2.1-3.2-3.3c-2.1-2.9-3.3-6.1-4-9.6c-0.7-3.2-1.1-6.5-1-9.7c0.1-3.4,0.3-6.9,0.4-10.3
			c0-0.6,0.1-1.2,0-1.7c-0.1-1-0.5-1.4-1.5-1.4c-0.7,0-1.5,0.1-2.1,0.3c-1.7,0.7-3.3,1.5-4.9,2.3c0.1,0.5,0.1,0.9,0.2,1.3
			c0.1,2.4,0.3,4.8,0.4,7.2c0,3.4-0.4,6.7-0.8,10.1c-0.4,3.1-1,6.1-2,9c-0.7,2.1-1.6,4-3,5.7c-2.4,3-5.7,4-9.3,2.9
			c-2.5-0.7-4.5-2.2-6.1-4.3c-1.7-2.2-2.7-4.7-3.4-7.4c-0.7-2.4-0.9-4.9-0.4-7.4c0.1-0.3,0.1-0.5-0.2-0.8c-1.6-1.2-2.9-2.6-4.2-4.3
			c-0.1,0.5-0.2,0.8-0.3,1.1c-1.3,5.7-2.5,11.4-3.9,17.1c-0.6,2.5-1.3,4.9-2.1,7.3c-0.3,0.9-0.8,1.8-1.3,2.6c-1.5,2.2-4.2,2.7-6.3,1
			c-0.8-0.6-1.4-1.4-2-2.2c-1.8-2.6-2.8-5.5-3.7-8.5c-1-3.5-1.6-7.1-1.8-10.7c0-0.2-0.1-0.4-0.2-0.7c-0.3,0.4-0.5,0.7-0.8,1
			c-1.1,1.6-2.3,3.2-3.7,4.6c-1.3,1.3-2.8,2.3-4.7,2.7c-3,0.7-5.6-0.1-7.8-2.1c-0.8-0.7-1.4-1.5-2.2-2.4c-0.1,0.2-0.3,0.4-0.4,0.7
			c-1,2-2,4.1-3.1,6c-0.6,1.1-1.3,2.1-2.1,3.1c-1.5,1.6-3.6,1.9-5.6,0.8c-0.9-0.5-1.7-1.3-2.2-2.2c-1.2-1.8-1.8-3.8-2.1-5.9
			c-0.4-3.1-0.2-6.2,0.1-9.2c0.4-3.9,1.5-7.7,2.7-11.4c0.3-1,0.6-2.1,0.9-3.2c-0.7-0.5-1.4-0.5-2-0.6c-0.6-0.1-1.3-0.2-2-0.3
			c-1.4,8.7-6.6,14.6-14.3,18.5c0,0.2,0,0.4,0,0.7c0.4,3.2,0.1,6.3-0.7,9.3c-0.7,2.5-1.5,4.9-2.7,7.2c-0.6,1.1-1.4,2.2-2.2,3.2
			c-2.5,2.9-5.7,3.7-9.3,2.6c-2.5-0.8-4.4-2.4-5.6-4.8c-1.1-2.3-1.6-4.8-1.3-7.4c0.1-1.4,0.4-2.8,0.6-4.3c-2.4,1.4-4.7,2.8-7.2,3.6
			c-2.6,0.8-5.3,1.1-8.1,1.4c0.4,0.7,0.8,1.2,1.1,1.8c2.6,4,4.3,8.4,5.3,13c0.9,4,0.8,8-0.5,12c-0.4,1.2-0.9,2.4-1.7,3.5
			c-0.9,1.2-2,2.1-3.5,2.4c-1.7,0.4-3.3-0.1-4.7-1.1c-0.9-0.7-1.6-1.5-2.2-2.5c-1.4-2.3-2.2-4.8-2.7-7.5c-0.7-4.2-0.8-8.5-0.4-12.7
			c0.2-2.8,0.5-5.6,0.8-8.3c0.5-4.3,1.4-8.6,2.5-12.8c0.1-0.3,0.1-0.7,0.2-1.1c-0.2,0.1-0.3,0.1-0.4,0.2c-4.8,3.2-8.3,7.4-10.3,12.9
			c-0.4,1.2-0.7,2.4-0.7,3.6c0,1.2-1.4,1.8-2.3,1.1c-0.3-0.2-0.5-0.7-0.7-1.1c-0.3-1.2-0.2-2.3,0.1-3.5c1.4-5.3,4.2-9.8,8.4-13.3
			c2-1.7,4.1-3.1,6.4-4.2c0.6-0.3,0.9-0.7,1.1-1.3c2.2-7,5.1-13.6,9-19.9c1.6-2.6,3.4-5.1,5.6-7.4c3.1-3.3,6.6-6,10.7-7.8
			c2.4-1.1,4.9-1.7,7.6-1.4c5,0.4,8.1,4.3,7.5,9.2c-0.3,2.1-1,3.9-2,5.7c-2,3.4-4.5,6.4-7.5,9c-4.2,3.7-8.8,6.7-13.7,9.1
			c-2.7,1.3-5.5,2.6-8.2,3.8c-0.4,0.2-0.7,0.3-0.9,0.8c-1.6,5-2.9,10.1-4.1,15.4c0.8,0,1.5-0.1,2.2-0.1c4.4-0.3,8.4-2,12-4.5
			c1.1-0.8,2.2-1.6,3.3-2.4c0.8-0.6,1.7-0.8,2.7-0.7c1.3,0.2,2.1,1.1,2.1,2.4c0,1-0.2,2.1-0.3,3.1c-0.2,1.7-0.6,3.4-0.8,5.1
			c-0.2,1.7,0,3.4,0.5,5.1c0.3,0.9,0.7,1.6,1.3,2.3c1.1,1,2.2,1.2,3.3,0.3c0.8-0.5,1.4-1.2,2-2c1.4-1.8,2.4-3.8,3.1-6
			c1.1-3.1,1.8-6.3,1.7-9.6c0-0.4-0.1-0.8-0.1-1.3c-0.3,0-0.6,0-0.8,0.1c-2.5,0.2-4.8-0.2-7-1.5c-1.3-0.8-2.3-1.7-3-3.1
			c-1.2-2.4-0.6-4.8,1.5-6.4c2.7-2,6-1.8,8.4,0.5c1.5,1.4,2.4,3.2,3.1,5.1C179.7,162.2,179.9,162.6,180.1,163.2z M149.7,155
			c0.4-0.1,0.5-0.2,0.6-0.2c3-1.5,6-2.8,8.9-4.4c4.5-2.5,8.7-5.6,12.2-9.4c2.2-2.4,4-4.9,5.2-7.9c0.5-1.3,0.9-2.7,0.9-4.2
			c-0.1-3-1.9-4.5-4.9-3.9c-2,0.4-3.8,1.3-5.4,2.5c-4.4,3-7.7,7-10.3,11.6c-2.2,3.9-4,8-5.7,12.1C150.7,152.3,150.2,153.6,149.7,155
			z M143,181.5c-0.1,0.2-0.1,0.3-0.1,0.4c-0.3,2.2-0.5,4.4-0.8,6.6c-0.5,4.6-0.6,9.3,0.1,13.9c0.2,1.2,0.6,2.5,1,3.7
			c0.2,0.5,0.5,1,1.1,1.4c0.3-0.2,0.6-0.4,0.8-0.7c0.5-0.7,1-1.4,1.3-2.1c1.2-2.7,1.5-5.5,1.3-8.4c-0.3-5.1-2-9.9-4.4-14.4
			C143.2,181.7,143.2,181.6,143,181.5z M276.5,145.4c-0.4-2.9-1.2-5.6-2.9-7.9c-0.3-0.4-0.6-0.7-0.9-1c-0.6-0.5-1-0.5-1.5,0.1
			c-0.6,0.6-1,1.4-1.1,2.3c-0.2,1.7,0.1,3.2,1,4.7C272.4,145.5,274.2,146.2,276.5,145.4z M215.2,160c0.2,0,0.2,0,0.3,0
			c0.1,0,0.3-0.1,0.4-0.1c2.8-1.1,4.6-3.2,5.1-6.1c0.1-0.7,0-1.4-0.1-2.1c-0.1-0.7-0.5-1.3-1.1-1.7c-0.7-0.5-1.2-0.5-1.8,0.1
			c-0.3,0.4-0.7,0.8-0.9,1.2C215.9,154.1,215.5,157,215.2,160z M176.9,164.3c0-0.2,0.1-0.3,0-0.4c-0.4-1.8-0.9-3.4-1.9-4.9
			c-0.3-0.5-0.8-1-1.3-1.4c-0.5-0.5-1.1-0.5-1.8-0.2c-2.2,1-2.8,3.3-1.3,5.2c0.3,0.4,0.7,0.7,1.1,1
			C173.4,164.6,175.1,164.6,176.9,164.3z M192.1,143.8c0.1-0.2,0.1-0.4,0.1-0.5c0.1-1.6,0.1-3.2-0.2-4.8c-0.2-1-0.5-2-1.2-2.9
			c-0.5-0.6-0.8-0.7-1.5-0.3c-0.8,0.5-1.3,1.2-1.5,2.1c-0.4,1.9,0.1,3.5,1.5,4.8C190.2,142.9,191.1,143.4,192.1,143.8z M266.5,156.9
			c-1.1,1.2-2.4,5.3-2.2,7c1.6,0.1,3.1-1.1,3.7-2.9C268.4,159.4,267.9,157.9,266.5,156.9z"/>
		<path class="st4" d="M280.3,210c0.4-0.2,0.8-0.4,1.1-0.6c1.8-0.9,3.5-1.8,5.3-2.6c0.9-0.4,2-0.7,3-1c1-0.2,2-0.1,2.9,0.1
			c2.3,0.6,3.5,2.4,3.9,4.6c0.2,1.1,0.3,2.3,0.4,3.4c0.1,3.2,0,6.4,0.1,9.6c0,3.2,0.3,6.4,1.3,9.5c0.5,1.7,1.3,3.2,2.5,4.6
			c1.7,2,3.9,2.8,6.5,2.2c2.3-0.6,4.4-1.6,6-3.5c2.1-2.3,3.6-4.9,4.8-7.7c0.9-2.1,1.6-4.4,2.5-6.6c0.2-0.6,0.5-1.1,0.9-1.6
			c0.2-0.3,0.6-0.5,0.9-0.6c0.6-0.3,1.3-0.3,1.8,0.2c0.5,0.5,0.6,1.1,0.4,1.8c-1.5,5.6-4,10.6-7.7,15.1c-3.2,4-7.5,6.1-12.6,6.5
			c-2.8,0.2-5.3-0.6-7.5-2.3c-3.3-2.4-5.4-5.7-6.5-9.6c-1-3.6-1.5-7.3-1.4-11c0.1-2.8,0.3-5.6,0.4-8.4c0-1,0-2,0-3.2
			c-0.4,0-0.9,0-1.2,0.1c-0.6,0.2-1.2,0.4-1.8,0.7c-2,1-3.9,2-5.9,3c-0.1,1.3-0.1,2.7-0.3,4.1c-0.3,2.3-0.7,4.6-1.1,6.9
			c-0.6,3.5-1.2,7-2.4,10.3c-0.7,1.8-1.4,3.6-2.3,5.3c-0.5,1.1-1.3,2-2,3c-1.5,2-3.7,2.9-6.2,3.1c-3.9,0.3-7.1-1.2-9.7-4
			c-2.9-3.1-4.8-6.8-5.6-11c-0.2-1.1-0.3-2.2-0.4-3.3c0-0.3,0-0.6-0.4-0.8c-1.5-0.9-2.8-1.9-4.1-3.1c-0.1-0.1-0.2-0.1-0.3-0.1
			c-0.1,0.6-0.2,1.1-0.3,1.7c-0.8,4.7-1.6,9.5-2.5,14.2c-0.3,1.5-0.8,3-1.3,4.5c-0.5,1.5-1.6,2.4-3.2,2.7c-1,0.1-2-0.1-2.9-0.6
			c-1.1-0.6-2.1-1.5-2.9-2.5c-2.2-2.8-3.7-5.9-4.8-9.3c-0.3-1-0.6-2-0.9-3.1c-0.2,0.3-0.3,0.5-0.4,0.7c-0.9,2-1.8,4-2.8,6.1
			c-0.9,1.9-2,3.7-3.3,5.3c-1.4,1.7-3.1,3.2-5.3,3.8c-3.6,1-6.7,0-9.4-2.5c-2.4-2.2-3.7-5.1-4.4-8.3c-0.9-4.3-0.3-8.5,1.5-12.5
			c0.8-1.8,1.9-3.4,3.3-4.7c1.9-1.7,4.1-2.5,6.7-2.1c2.7,0.4,4.7,2.5,4.9,5.3c0.2,2.2-0.4,4.2-1.7,5.9c-1.6,2.1-3.6,3.6-6,4.6
			c-0.3,0.1-0.6,0.2-0.9,0.4c-0.1,1.2,0.1,2.3,0.4,3.4c0.3,1.8,0.9,3.5,1.9,5c0.4,0.6,0.8,1.1,1.3,1.5c0.6,0.6,1.3,0.7,2,0.2
			c0.7-0.4,1.4-0.9,2-1.5c0.9-1,1.8-2.1,2.5-3.2c1.1-1.8,2.1-3.8,3.1-5.7c1.1-2.1,2.2-4.3,3.3-6.5c0.3-0.5,0.3-1,0.3-1.6
			c-0.4-2.5-0.5-5.1-0.1-7.6c0-0.3,0.1-0.6,0.2-0.9c0.6-2.8,3.5-3.3,5.2-2.7c1,0.4,1.7,1.1,2,2.2c0.3,1.2,0.5,2.4,0.6,3.7
			c0.4,5,0.8,10.1,1.8,15c0.4,2.2,1,4.3,1.8,6.3c0.2,0.5,0.5,1,0.8,1.8c0.2-0.5,0.4-0.8,0.4-1.1c0.5-2.1,1.1-4.2,1.5-6.3
			c0.8-3.8,1.4-7.6,2.1-11.4c0.2-0.8,0.4-1.7,0.7-2.5c0.7-1.7,2.4-2.3,4-1.3c0.5,0.3,0.9,0.7,1.3,1.1c0.9,0.7,1.7,1.5,2.7,2.3
			c0.1-0.4,0.2-0.6,0.3-0.9c0.8-2.6,2-4.8,4.1-6.5c1.5-1.1,3.2-1.7,5.1-1.5c1,0.1,2,0.5,2.8,1.1c3.3,2.4,3.9,6.9,1.2,10.2
			c-1.4,1.7-3.3,2.7-5.5,3c-0.2,0-0.4,0.1-0.8,0.1c0.2,1,0.4,2,0.6,3c0.5,2.3,1.4,4.5,2.7,6.5c0.5,0.7,1,1.4,1.6,2
			c0.4,0.5,1,0.8,1.5,1.2c2.1,1.3,3.9,1,5.3-1.1c0.9-1.2,1.6-2.6,2.2-4c1.7-4,2.9-8.2,3.7-12.5c0.5-2.9,0.7-5.8,1-8.7
			c0-0.2,0-0.5,0-0.8c-1,0-2,0-2.9,0c-1.2-0.1-2.2-0.5-3.2-1.2c-3.2-2.1-5.9-7.5-4.3-12.3c0.3-0.9,0.7-1.7,1.2-2.5
			c1.6-2.4,4.6-3,7.1-1.4c0.8,0.5,1.5,1.2,2.2,2c1.8,2.2,2.7,4.8,3.2,7.6C280,207.3,280.1,208.5,280.3,210z M276.6,211.4
			c-0.1-3.2-0.4-6.3-1.6-9.2c-0.4-1-1.1-2-1.8-2.9c-1.1-1.4-1.7-1.3-2.6,0.2c-2,3.3-1.3,8.2,1.5,10.8
			C273.3,211.7,274.8,211.8,276.6,211.4z M209,229.7c0.1,0,0.2,0,0.3-0.1c1.7-0.9,3-2.2,3.8-3.9c0.7-1.5,0.8-3,0.2-4.6
			c-0.2-0.6-0.5-1.1-1.3-1.4c-0.3,0.2-0.6,0.5-0.8,0.8c-0.4,0.6-0.7,1.1-0.9,1.8c-0.6,1.6-0.9,3.2-1.2,4.9
			C209,228,208.8,228.8,209,229.7z M257.9,225.7c2.3,0.1,3.9-1.6,4.3-3.6c0.4-1.9-0.4-3.8-2.2-4.6
			C258.2,219.9,258.1,222.8,257.9,225.7z"/>
		<g>
			<path class="st4" d="M207.3,262.8c-0.1,0.3-0.2,0.6-0.4,0.9c-1.4,3.7-2.2,7.5-3.1,11.4c-0.8,3.6-1.7,7.2-2.3,10.8
				c-0.6,3.3-4,4.3-6.3,3.6c-0.8-0.3-1.6-0.7-2.1-1.5c-0.5-0.7-1-1.5-1.3-2.3c-1.5-3.3-2.6-6.8-3.7-10.3c-1.7-5.2-3.3-10.4-5-15.6
				c-0.1-0.3-0.2-0.6-0.4-0.9c0,0.2,0,0.4,0,0.6c-0.2,6.4,0,12.9,0.3,19.3c0.2,3.8,0.3,7.6,0.6,11.4c0.3,4.8,0.7,9.7,1.1,14.5
				c0.1,1.4,0.3,2.8,0.1,4.3c-0.2,1.2-1.1,2.1-2.3,2.1c-0.9,0.1-1.5-0.4-1.7-1.2c-0.2-1.3-0.4-2.7-0.5-4c-0.5-6.3-1-12.6-1.4-18.8
				c-0.6-8.4-1-16.7-0.9-25.1c0.1-4.2,0.3-8.4,0.5-12.6c0-0.5,0.1-1,0.2-1.4c0.3-1.2,1.1-1.9,2.3-2.1c1.4-0.2,2.7,0.2,3.6,1.3
				c0.6,0.6,1.1,1.3,1.5,2.1c2.7,4.8,5.2,9.8,6.9,15.1c1.5,4.6,3.1,9.1,4.6,13.7c0.1,0.3,0.2,0.6,0.4,1.1c0.1-0.4,0.2-0.6,0.3-0.8
				c1.3-4.6,2.6-9.2,3.9-13.7c0.9-3.1,2.1-6.2,3.6-9.1c0.6-1.1,1.4-1.9,2.6-2.2c2.1-0.6,4.2,0.2,5.4,2c0.8,1.2,1.2,2.6,1.4,4
				c0.2,1.4,0.4,2.9,0.5,4.3c0.4,3.9,0.7,7.7,1,11.6c0.3,3.2,0.5,6.4,0.7,9.6c0.4,5.7,0.6,11.5,1,17.3c0.2,4,0.6,8,0.8,12
				c0.1,0.9-0.2,1.8-0.7,2.5c-0.9,1.3-2.2,2.1-3.8,2.3c-1.7,0.2-2.9-0.7-3-2.4c-0.5-5.1-0.9-10.2-1.2-15.3
				c-0.3-5.7-0.8-11.4-1.3-17.1c-0.2-3.2-0.5-6.4-0.8-9.5c-0.3-3.1-0.5-6.2-0.8-9.4c-0.1-0.8-0.1-1.5-0.2-2.3
				C207.4,262.8,207.4,262.8,207.3,262.8z"/>
			<path class="st4" d="M257.2,263.4c0,1.3,0,2.4,0,3.5c0.1,1.9,0.1,3.8,0.3,5.6c0.3,4,0.5,7.9,0.8,11.9c0.3,3.8,0.6,7.6,0.9,11.4
				c0.3,3.3,0.5,6.6,0.8,9.9c0,0.6,0,1.3-0.1,1.9c-0.1,1-1,1.8-2.1,1.8c-0.8,0-1.3-0.3-1.5-1.1c-0.2-0.7-0.3-1.3-0.4-2
				c-0.8-5.4-1.3-10.8-1.8-16.2c-0.6-6.6-1.1-13.2-1.4-19.9c-0.2-3.8-0.3-7.5-0.4-11.3c0-0.5,0-1,0-1.5c0.1-1.4,0.9-2.3,2.3-2.7
				c1.3-0.4,2.6-0.2,3.8,0.3c1.4,0.6,2.5,1.6,3.6,2.7c1.3,1.3,2.4,2.9,3.5,4.5c2.6,4.1,5.2,8.2,7.9,12.3c2.2,3.4,4.5,6.7,6.7,10
				c0.2,0.3,0.4,0.5,0.7,0.9c0-0.4,0.1-0.6,0.1-0.9c-0.2-6.5-0.4-12.9-0.6-19.4c-0.1-2.7-0.2-5.4-0.4-8.1c-0.1-2.3-0.3-4.7-0.5-7
				c0-0.6,0-1.3-0.1-1.9c0-0.6,0.2-1.1,0.7-1.5c0.8-0.6,1.6-0.7,2.5-0.4c0.7,0.3,1.1,0.8,1.2,1.6c0.2,1.9,0.4,3.9,0.5,5.8
				c0.2,4.5,0.4,9,0.6,13.5c0.2,4.3,0.5,8.6,0.7,12.9c0.1,2.6,0.3,5.1,0.3,7.7c0,0.8-0.1,1.6-0.2,2.4c-0.3,2-1.7,3.4-3.8,3.8
				c-2.3,0.4-4.4-0.3-6-2c-1-1.1-2-2.3-2.8-3.5c-3.3-4.4-6.2-9.1-9.1-13.8c-2.1-3.4-4.1-6.8-6.2-10.2
				C257.6,264.1,257.4,263.9,257.2,263.4z"/>
			<path class="st4" d="M159.8,271.4c-4.4,0.4-8.8,0.6-13.2-0.1c-0.1,0.6-0.1,1.2-0.1,1.8c-0.1,1.7-0.1,3.4-0.2,5
				c0,0.3,0,0.6-0.1,0.9c-0.2,0.9-1,1.5-2,1.3c-0.5-0.1-0.8-0.4-0.9-0.9c-0.1-0.7-0.3-1.3-0.3-2c-0.3-3-0.2-6,0.1-9.1
				c0.2-3.2,0.5-6.3,1-9.4c0.9-6.4,2.2-12.7,4.8-18.7c0.3-0.8,0.7-1.6,1.2-2.3c1.5-2.3,4.3-2.9,6.7-1.5c1.4,0.8,2.3,2,3.2,3.3
				c1.6,2.4,2.6,5.1,3.4,7.9c1.5,4.6,2.5,9.4,3.2,14.2c0.7,4.8,1.4,9.5,2,14.3c0.5,4.3,1,8.6,1.4,12.8c0.3,2.7,0.5,5.4,0.8,8.1
				c0.1,1.2,0,2.3-0.4,3.4c-0.7,1.9-3.1,3.2-5,2.7c-0.6-0.2-1.1-0.5-1.5-1.1c-0.6-0.8-0.8-1.7-0.9-2.7c-0.2-2.4-0.4-4.8-0.7-7.2
				c-0.3-3.2-0.7-6.5-1.1-9.7c-0.4-3.5-0.9-6.9-1.3-10.3C159.9,271.9,159.8,271.7,159.8,271.4z M146.8,268.4
				c4.2,0.1,8.3,0.1,12.5-0.3c0-0.3,0-0.6-0.1-0.9c-0.3-1.9-0.6-3.8-0.9-5.7c-0.8-4-1.5-8-2.3-12c-0.5-2.7-1.1-5.3-2-7.9
				c-0.1-0.3-0.3-0.7-0.5-1.2c-0.3,0.5-0.5,0.9-0.7,1.3c-1.4,2.8-2.3,5.7-3.1,8.8c-1.1,4.4-1.8,8.8-2.4,13.3
				C147.1,265.2,146.9,266.7,146.8,268.4z"/>
			<path class="st4" d="M232,294.5c0.5,0,1-0.1,1.5-0.1c2.4-0.1,4.9-0.3,7.3-0.3c0.6,0,1.1,0.1,1.7,0.3c0.9,0.3,1.1,1.2,0.5,1.9
				c-0.5,0.5-1,0.9-1.7,1.1c-0.6,0.1-1.2,0.2-1.8,0.2c-2.2,0.1-4.4,0.2-6.6,0.3c-0.2,0-0.3,0-0.6,0.1c0.1,0.8,0.2,1.6,0.3,2.4
				c0.5,3.5,0.9,7,1.4,10.5c0.1,0.8,0.4,1.5,1.2,1.7c0.4,0.1,0.8,0.2,1.2,0.1c2.7-0.4,5.4-0.8,8-1.5c0.6-0.2,1.2-0.2,1.8-0.2
				c1.4,0.1,2,1.3,1.2,2.4c-0.4,0.7-1,1.1-1.8,1.4c-1.1,0.4-2.2,0.9-3.3,1.2c-2.3,0.7-4.5,1.4-6.8,2c-1.5,0.4-3,0.6-4.6,0.3
				c-2.2-0.4-3.6-1.7-4.3-3.7c-0.4-1.3-0.7-2.7-0.8-4c-0.7-5.3-1.3-10.5-1.9-15.8c-0.8-7.4-1.2-14.8-1.1-22.2c0-2.8,0-5.6,0.1-8.4
				c0-1.3,0.2-2.7,0.5-4c0.7-3.3,3.1-5.6,6.4-6c3.2-0.5,6.5-0.6,9.7-0.4c0.6,0.1,1.2,0.3,1.8,0.5c0.5,0.2,0.8,0.5,0.8,1.1
				c0,0.5-0.4,0.9-0.9,1c-0.7,0.2-1.3,0.2-2,0.3c-2,0.2-4,0.3-6,0.5c-1.9,0.2-1.9,0.3-2,2.1c-0.4,7-0.4,14.1-0.1,21.1
				c0.2,4,0.5,8,0.7,12C231.8,293.1,231.9,293.8,232,294.5z"/>
		</g>
		<g>
			<path class="st4" d="M178.1,207.7c0,0.7,0,1.3,0,2c0,2,0,3.9,0,5.9c0,1.1-0.7,1.8-1.8,2c-1,0.2-1.7-0.3-1.8-1.3
				c-0.1-0.4-0.1-0.8-0.1-1.2c-0.1-4.4-0.2-8.9-0.3-13.3c0-0.4,0.1-0.9,0.1-1.3c0.1-2.1,2-2.8,3.5-2.6c0.9,0.1,1.7,0.5,2.2,1.2
				c0.6,0.7,1.1,1.5,1.6,2.3c1.4,2.6,2.7,5.2,4,7.8c0.1,0.3,0.3,0.6,0.5,1c0-0.4,0.1-0.7,0.1-0.9c0-2.8,0-5.7,0-8.5
				c0-0.8,0.1-1.5,0.2-2.3c0.3-1.3,1.7-2,3-1.6c0.5,0.2,0.9,0.5,1,1c0.1,0.6,0.3,1.3,0.3,2c0,4.5,0,9.1,0,13.6
				c0,0.4-0.1,0.9-0.1,1.3c-0.3,2.3-2.1,3.5-4.3,2.8c-1.1-0.3-2.1-0.9-2.8-1.8c-0.9-1.2-1.8-2.4-2.6-3.7c-0.8-1.2-1.4-2.6-2.1-3.9
				c-0.1-0.2-0.2-0.4-0.3-0.6C178.3,207.7,178.2,207.7,178.1,207.7z"/>
			<path class="st4" d="M205.6,205.6c-0.1,2.7-0.6,5.2-2,7.5c-1.7,2.7-4.2,4-7.4,4.3c-0.3,0-0.6,0-0.9,0c-0.9-0.1-1.5-0.6-1.7-1.5
				c-0.1-0.8-0.2-1.6-0.3-2.4c-0.2-3.1-0.4-6.3-0.6-9.4c-0.1-1.2-0.1-2.5-0.1-3.7c0-0.5,0.1-1.1,0.2-1.6c0.3-1.3,1.1-2.1,2.5-2.3
				c1.6-0.3,3.2-0.2,4.7,0.3c3.2,1,4.8,3.3,5.4,6.4C205.5,203.9,205.5,204.8,205.6,205.6z M197.8,213.8c0.1,0,0.1,0.1,0.2,0.1
				c0.4-0.3,0.9-0.6,1.2-1c0.5-0.7,1-1.4,1.3-2.2c0.8-2.5,0.9-5,0.2-7.5c-0.3-1.2-0.9-2.2-1.8-3c-0.4-0.4-0.8-0.7-1.5-0.7
				C197.5,204.4,197.6,209.1,197.8,213.8z"/>
			<path class="st4" d="M166.1,214.1c-1.6,0.1-3.1,0.1-4.7,0.2c-0.1,0.1-0.2,0.3-0.2,0.5c-0.1,0.5-0.2,0.9-0.3,1.4
				c-0.2,0.6-0.6,1-1.1,1.2c-1.2,0.4-2.1-0.1-2.1-1.4c0-0.9,0.1-1.8,0.2-2.7c0.4-3.1,0.7-6.2,1.5-9.2c0.4-1.6,1-3.2,2.1-4.6
				c1.2-1.6,3.1-2.2,4.9-1.7c1.2,0.4,2,1.2,2.6,2.3c0.7,1.4,1.1,2.8,1.3,4.4c0.4,2.5,0.6,5,1,7.5c0.1,1.1,0.3,2.3,0.5,3.4
				c0.1,0.7-0.1,1.3-0.6,1.8c-1,0.9-2.1,1.2-3.4,0.8c-0.8-0.3-1.3-0.8-1.3-1.7C166.3,215.5,166.2,214.9,166.1,214.1z M165.7,211.2
				c-0.5-2.9-0.9-5.7-1.7-8.5c-1.4,2.7-1.8,5.7-2.3,8.8C163.1,211.4,164.3,211.3,165.7,211.2z"/>
		</g>
	</g>
</g>
</svg>
